<svg width="17" height="14" viewBox="0 0 17 14" fill="none" xmlns="http://www.w3.org/2000/svg">
<path d="M16.0672 4.81754L12.3172 8.56754C12.1999 8.68481 12.0409 8.7507 11.875 8.7507C11.7091 8.7507 11.5501 8.68481 11.4328 8.56754C11.3155 8.45026 11.2497 8.2912 11.2497 8.12535C11.2497 7.9595 11.3155 7.80044 11.4328 7.68316L14.1164 5.00035H11.0156C9.49114 4.99993 8.00975 5.50621 6.80441 6.4396C5.59907 7.37298 4.73815 8.68052 4.35703 10.1566C4.31559 10.3172 4.21206 10.4547 4.06921 10.539C3.92636 10.6232 3.75589 10.6473 3.59531 10.6058C3.43473 10.5644 3.29719 10.4608 3.21295 10.318C3.1287 10.1751 3.10465 10.0047 3.14609 9.8441C3.59579 8.0992 4.61309 6.55343 6.03781 5.45021C7.46252 4.34699 9.21371 3.74898 11.0156 3.75035H14.118L11.4328 1.06753C11.3747 1.00947 11.3287 0.940528 11.2973 0.864658C11.2658 0.788787 11.2497 0.707469 11.2497 0.625347C11.2497 0.543226 11.2658 0.461908 11.2973 0.386037C11.3287 0.310167 11.3747 0.241229 11.4328 0.18316C11.5501 0.0658846 11.7091 0 11.875 0C11.9571 0 12.0384 0.0161751 12.1143 0.0476018C12.1902 0.0790284 12.2591 0.125091 12.3172 0.18316L16.0672 3.93316C16.1253 3.99121 16.1714 4.06014 16.2029 4.13601C16.2343 4.21188 16.2505 4.29321 16.2505 4.37535C16.2505 4.45748 16.2343 4.53881 16.2029 4.61469C16.1714 4.69056 16.1253 4.75949 16.0672 4.81754ZM13.125 12.5003H1.25V3.12535C1.25 2.95959 1.18415 2.80062 1.06694 2.68341C0.949731 2.5662 0.79076 2.50035 0.625 2.50035C0.45924 2.50035 0.300269 2.5662 0.183058 2.68341C0.065848 2.80062 0 2.95959 0 3.12535V13.1253C0 13.2911 0.065848 13.4501 0.183058 13.5673C0.300269 13.6845 0.45924 13.7503 0.625 13.7503H13.125C13.2908 13.7503 13.4497 13.6845 13.5669 13.5673C13.6842 13.4501 13.75 13.2911 13.75 13.1253C13.75 12.9596 13.6842 12.8006 13.5669 12.6834C13.4497 12.5662 13.2908 12.5003 13.125 12.5003Z" fill="white"/>
</svg>
