<svg width="150" height="150" viewBox="0 0 150 150" fill="none" xmlns="http://www.w3.org/2000/svg">
<g clip-path="url(#clip0_687_57)">
<path fill-rule="evenodd" clip-rule="evenodd" d="M30.8452 43.1726C33.8441 54.139 41.2321 63.1044 50.6357 70.1329C64.8373 80.747 83.6373 86.9484 99.0614 88.9046C108.755 90.1351 115.725 87.7271 125.408 86.8409C125.801 86.8052 126.148 87.0939 126.183 87.4861C126.22 87.8767 125.93 88.2253 125.539 88.2594C115.742 89.156 108.689 91.5631 98.8814 90.3189C83.2424 88.3352 64.1836 82.0367 49.7824 71.2744C40.1193 64.0523 32.5524 54.8187 29.4702 43.5489C29.3662 43.1693 29.5886 42.7777 29.9683 42.6737C30.348 42.5697 30.7412 42.793 30.8452 43.1726Z" fill="#007FFF"/>
<path fill-rule="evenodd" clip-rule="evenodd" d="M127.677 88.4606C127.642 88.4656 127.412 88.4945 127.221 88.5393C126.431 88.7201 125.078 89.163 123.403 89.8229C117.788 92.043 108.584 96.7073 105.029 102.532C104.824 102.868 104.386 102.973 104.05 102.768C103.714 102.563 103.606 102.125 103.811 101.789C107.51 95.7287 117.037 90.8065 122.88 88.4979C123.663 88.1893 124.38 87.9246 125.007 87.7119C123.049 87.1988 121.082 86.7372 119.105 86.2966C113.412 85.0302 108.749 82.7553 104.097 79.1655C103.786 78.9264 103.728 78.4773 103.969 78.1668C104.208 77.8555 104.657 77.7977 104.968 78.0384C109.446 81.4927 113.934 83.6859 119.414 84.9056C121.997 85.4819 124.567 86.0953 127.118 86.8053C127.371 86.8759 128.029 87.0668 128.117 87.108C128.619 87.3426 128.543 87.8063 128.521 87.9078C128.511 87.9569 128.35 88.5588 127.677 88.4606ZM127.832 87.044C127.85 87.0471 127.87 87.0486 127.89 87.0524C127.874 87.0485 127.854 87.0471 127.832 87.044Z" fill="#007FFF"/>
</g>
<defs>
<clipPath id="clip0_687_57">
<rect width="108.893" height="108.893" fill="white" transform="matrix(-0.512233 0.858847 0.858847 0.512233 55.7785 0)"/>
</clipPath>
</defs>
</svg>
