<svg width="63" height="74" viewBox="0 0 63 74" fill="none" xmlns="http://www.w3.org/2000/svg">
<path d="M12.7177 18.701C13.0767 17.3673 14.9689 17.3673 15.3279 18.7009L25.7084 57.2596C25.9396 58.1184 25.2927 58.9625 24.4033 58.9625H3.64229C2.75291 58.9625 2.10596 58.1184 2.33716 57.2596L12.7177 18.701Z" fill="white"/>
<path d="M46.8456 19.0107C47.206 17.6795 49.0945 17.6796 49.4549 19.0107L59.8328 57.3432C60.0654 58.2024 59.4183 59.048 58.5282 59.048H37.7723C36.8822 59.048 36.2351 58.2024 36.4677 57.3432L46.8456 19.0107Z" fill="white"/>
<path d="M29.7811 54.9265C30.1385 56.263 32.035 56.263 32.3925 54.9265L42.6296 16.6529C42.8592 15.7946 42.2124 14.952 41.3239 14.952H20.8496C19.9611 14.952 19.3143 15.7946 19.5439 16.6529L29.7811 54.9265Z" fill="white"/>
</svg>
