<svg width="27" height="32" viewBox="0 0 27 32" fill="none" xmlns="http://www.w3.org/2000/svg">
<path d="M5.49955 8.08725C5.65481 7.51053 6.47305 7.51053 6.62831 8.08725L11.1172 24.7613C11.2172 25.1327 10.9374 25.4977 10.5528 25.4977H1.57505C1.19045 25.4977 0.910687 25.1327 1.01067 24.7613L5.49955 8.08725Z" fill="#007FFF"/>
<path d="M20.2571 8.22079C20.4129 7.64514 21.2296 7.64514 21.3854 8.22079L25.8732 24.797C25.9738 25.1686 25.694 25.5342 25.309 25.5342H16.3335C15.9486 25.5342 15.6687 25.1686 15.7693 24.797L20.2571 8.22079Z" fill="#007FFF"/>
<path d="M12.8779 23.7521C13.0325 24.33 13.8526 24.33 14.0072 23.7521L18.4341 7.20126C18.5333 6.8301 18.2536 6.46576 17.8694 6.46576H9.01564C8.63144 6.46576 8.35174 6.8301 8.45101 7.20126L12.8779 23.7521Z" fill="#007FFF"/>
</svg>
