<svg width="181" height="32" viewBox="0 0 181 32" fill="none" xmlns="http://www.w3.org/2000/svg">
<path d="M5.49955 8.087C5.65481 7.51029 6.47305 7.51029 6.62831 8.087L11.1172 24.7611C11.2172 25.1324 10.9374 25.4975 10.5528 25.4975H1.57505C1.19045 25.4975 0.910687 25.1324 1.01067 24.7611L5.49955 8.087Z" fill="white"/>
<path d="M20.2571 8.22055C20.4129 7.6449 21.2296 7.6449 21.3854 8.22055L25.8732 24.7968C25.9738 25.1683 25.694 25.534 25.309 25.534H16.3335C15.9486 25.534 15.6687 25.1683 15.7693 24.7968L20.2571 8.22055Z" fill="white"/>
<path d="M12.8779 23.7518C13.0325 24.3298 13.8526 24.3298 14.0072 23.7518L18.4341 7.20101C18.5333 6.82986 18.2536 6.46552 17.8694 6.46552H9.01564C8.63144 6.46552 8.35174 6.82986 8.45101 7.20101L12.8779 23.7518Z" fill="white"/>
<path d="M46.7257 16.14L43.3657 22.14H40.0057L36.6457 16.14V25.5H32.3257V8.7H36.8857L41.6857 17.58L46.4857 8.7H51.0457V25.5H46.7257V16.14ZM58.0151 29.82C57.1671 29.82 56.1271 29.74 54.8951 29.58V26.46H57.0551C57.6631 26.46 58.0551 26.292 58.2311 25.956C58.4231 25.62 58.3911 25.148 58.1351 24.54L53.2151 12.78H57.6551L60.6551 20.94L63.1751 12.78H67.6151L62.8151 25.98C62.3511 27.244 61.7511 28.196 61.0151 28.836C60.2791 29.492 59.2791 29.82 58.0151 29.82ZM76.6226 20.46L80.7026 8.7H85.3826L79.0226 25.5H74.2226L67.8626 8.7H72.5426L76.6226 20.46ZM91.3807 22.38C92.2287 22.38 93.1887 22.22 94.2607 21.9V20.46H90.7807C90.5407 20.46 90.3407 20.54 90.1807 20.7C90.0207 20.86 89.9407 21.06 89.9407 21.3V21.54C89.9407 21.78 90.0207 21.98 90.1807 22.14C90.3407 22.3 90.5407 22.38 90.7807 22.38H91.3807ZM86.9407 13.02C89.8687 12.7 92.5087 12.54 94.8607 12.54C95.9487 12.54 96.8207 12.868 97.4767 13.524C98.1327 14.18 98.4607 15.052 98.4607 16.14V25.5H94.7407L94.5007 24.3C93.7487 24.796 92.9727 25.164 92.1727 25.404C91.3887 25.628 90.7247 25.74 90.1807 25.74H89.3407C88.2527 25.74 87.3807 25.412 86.7247 24.756C86.0687 24.1 85.7407 23.228 85.7407 22.14V21.06C85.7407 19.972 86.0687 19.1 86.7247 18.444C87.3807 17.788 88.2527 17.46 89.3407 17.46H94.2607V16.5C94.2607 16.26 94.1807 16.06 94.0207 15.9C93.8607 15.74 93.6607 15.66 93.4207 15.66C92.3807 15.66 91.2287 15.708 89.9647 15.804C88.7167 15.9 87.7087 15.972 86.9407 16.02V13.02ZM110.094 12.54C111.39 12.54 112.39 13.02 113.094 13.98C113.83 13.484 114.622 13.124 115.47 12.9C116.334 12.66 117.102 12.54 117.774 12.54H118.014C119.102 12.54 119.974 12.868 120.63 13.524C121.286 14.18 121.614 15.052 121.614 16.14V25.5H117.414V16.86C117.414 16.62 117.334 16.42 117.174 16.26C117.014 16.1 116.814 16.02 116.574 16.02H116.454C115.734 16.02 114.814 16.18 113.694 16.5V25.5H109.494V16.86C109.494 16.62 109.414 16.42 109.254 16.26C109.094 16.1 108.894 16.02 108.654 16.02H108.534C107.814 16.02 106.894 16.18 105.774 16.5V25.5H101.574V12.78H105.294L105.534 13.98C106.286 13.484 107.054 13.124 107.838 12.9C108.638 12.66 109.31 12.54 109.854 12.54H110.094ZM124.249 22.14C127.497 22.38 130.057 22.5 131.929 22.5C132.169 22.5 132.369 22.42 132.529 22.26C132.689 22.1 132.769 21.9 132.769 21.66V20.82H127.609C126.521 20.82 125.649 20.492 124.993 19.836C124.337 19.18 124.009 18.308 124.009 17.22V16.38C124.009 15.292 124.337 14.42 124.993 13.764C125.649 13.108 126.521 12.78 127.609 12.78H135.769V15.9H129.049C128.809 15.9 128.609 15.98 128.449 16.14C128.289 16.3 128.209 16.5 128.209 16.74C128.209 16.98 128.289 17.18 128.449 17.34C128.609 17.5 128.809 17.58 129.049 17.58H133.369C134.457 17.58 135.329 17.908 135.985 18.564C136.641 19.22 136.969 20.092 136.969 21.18V22.14C136.969 23.228 136.641 24.1 135.985 24.756C135.329 25.412 134.457 25.74 133.369 25.74C130.537 25.74 127.497 25.58 124.249 25.26V22.14ZM146.691 16.02C145.843 16.02 144.883 16.18 143.811 16.5V25.5H139.611V12.78H143.331L143.571 13.98C144.323 13.484 145.091 13.124 145.875 12.9C146.675 12.66 147.347 12.54 147.891 12.54H148.971C150.059 12.54 150.931 12.868 151.587 13.524C152.243 14.18 152.571 15.052 152.571 16.14V25.5H148.371V16.86C148.371 16.62 148.291 16.42 148.131 16.26C147.971 16.1 147.771 16.02 147.531 16.02H146.691ZM160.609 15.54C159.969 15.54 159.649 15.86 159.649 16.5V17.82H163.729V16.5C163.729 15.86 163.409 15.54 162.769 15.54H160.609ZM167.449 25.26C164.361 25.58 161.561 25.74 159.049 25.74C157.961 25.74 157.089 25.412 156.433 24.756C155.777 24.1 155.449 23.228 155.449 22.14V16.38C155.449 15.18 155.785 14.244 156.457 13.572C157.145 12.884 158.089 12.54 159.289 12.54H164.089C165.289 12.54 166.225 12.884 166.897 13.572C167.585 14.244 167.929 15.18 167.929 16.38V20.82H159.649V21.78C159.649 22.02 159.729 22.22 159.889 22.38C160.049 22.54 160.249 22.62 160.489 22.62C162.073 22.62 164.393 22.5 167.449 22.26V25.26ZM179.919 25.5C178.367 25.66 176.847 25.74 175.359 25.74C174.271 25.74 173.399 25.412 172.743 24.756C172.087 24.1 171.759 23.228 171.759 22.14V16.02H170.319V12.78H171.759L172.239 9.9H175.959V12.78H178.959V16.02H175.959V21.54C175.959 21.78 176.039 21.98 176.199 22.14C176.359 22.3 176.559 22.38 176.799 22.38H179.919V25.5Z" fill="white"/>
</svg>
