<svg width="28" height="28" viewBox="0 0 28 28" fill="none" xmlns="http://www.w3.org/2000/svg">
<path fill-rule="evenodd" clip-rule="evenodd" d="M11.667 8.16667C11.667 7.52233 12.1893 7 12.8337 7H22.167C22.8113 7 23.3337 7.52233 23.3337 8.16667C23.3337 8.811 22.8113 9.33333 22.167 9.33333H12.8337C12.1893 9.33333 11.667 8.811 11.667 8.16667ZM4.66699 14C4.66699 13.3557 5.18933 12.8333 5.83366 12.8333H22.167C22.8113 12.8333 23.3337 13.3557 23.3337 14C23.3337 14.6443 22.8113 15.1667 22.167 15.1667H5.83366C5.18933 15.1667 4.66699 14.6443 4.66699 14ZM4.66699 19.8333C4.66699 19.189 5.18933 18.6667 5.83366 18.6667H15.167C15.8113 18.6667 16.3337 19.189 16.3337 19.8333C16.3337 20.4777 15.8113 21 15.167 21H5.83366C5.18933 21 4.66699 20.4777 4.66699 19.8333Z" fill="#232B33"/>
</svg>
